<mxfile host="app.diagrams.net" modified="2023-05-10T07:15:58.157Z" agent="Mozilla/5.0 (Windows NT 10.0; Win64; x64) AppleWebKit/537.36 (KHTML, like Gecko) Chrome/112.0.0.0 Safari/537.36" etag="EFawaKChwmLOEjwRf7Vr" version="21.2.9" type="github">
  <diagram name="第 1 页" id="pEFQP5i0AA1p0Na8iCgs">
    <mxGraphModel dx="819" dy="450" grid="1" gridSize="10" guides="1" tooltips="1" connect="1" arrows="1" fold="1" page="1" pageScale="1" pageWidth="827" pageHeight="1169" math="0" shadow="0">
      <root>
        <mxCell id="0" />
        <mxCell id="1" parent="0" />
        <mxCell id="qtClvBC5TZEsLdvCulFs-5" style="rounded=0;orthogonalLoop=1;jettySize=auto;html=1;exitX=0.25;exitY=0;exitDx=0;exitDy=0;entryX=0.75;entryY=1;entryDx=0;entryDy=0;" edge="1" parent="1" source="qtClvBC5TZEsLdvCulFs-1" target="qtClvBC5TZEsLdvCulFs-2">
          <mxGeometry relative="1" as="geometry" />
        </mxCell>
        <mxCell id="qtClvBC5TZEsLdvCulFs-6" style="rounded=0;orthogonalLoop=1;jettySize=auto;html=1;exitX=0.75;exitY=0;exitDx=0;exitDy=0;entryX=0.326;entryY=1;entryDx=0;entryDy=0;entryPerimeter=0;" edge="1" parent="1" source="qtClvBC5TZEsLdvCulFs-1" target="qtClvBC5TZEsLdvCulFs-3">
          <mxGeometry relative="1" as="geometry" />
        </mxCell>
        <mxCell id="qtClvBC5TZEsLdvCulFs-1" value="&lt;font style=&quot;font-size: 14px;&quot;&gt;L&lt;/font&gt;" style="text;html=1;strokeColor=none;fillColor=none;align=center;verticalAlign=middle;whiteSpace=wrap;rounded=0;" vertex="1" parent="1">
          <mxGeometry x="370" y="320" width="60" height="30" as="geometry" />
        </mxCell>
        <mxCell id="qtClvBC5TZEsLdvCulFs-7" style="rounded=0;orthogonalLoop=1;jettySize=auto;html=1;exitX=0.75;exitY=0;exitDx=0;exitDy=0;entryX=0.25;entryY=1;entryDx=0;entryDy=0;" edge="1" parent="1" source="qtClvBC5TZEsLdvCulFs-2" target="qtClvBC5TZEsLdvCulFs-4">
          <mxGeometry relative="1" as="geometry" />
        </mxCell>
        <mxCell id="qtClvBC5TZEsLdvCulFs-2" value="&lt;font style=&quot;font-size: 14px;&quot;&gt;M1&lt;/font&gt;" style="text;html=1;strokeColor=none;fillColor=none;align=center;verticalAlign=middle;whiteSpace=wrap;rounded=0;" vertex="1" parent="1">
          <mxGeometry x="290" y="220" width="60" height="30" as="geometry" />
        </mxCell>
        <mxCell id="qtClvBC5TZEsLdvCulFs-8" style="rounded=0;orthogonalLoop=1;jettySize=auto;html=1;exitX=0.25;exitY=0;exitDx=0;exitDy=0;entryX=0.75;entryY=1;entryDx=0;entryDy=0;" edge="1" parent="1" source="qtClvBC5TZEsLdvCulFs-3" target="qtClvBC5TZEsLdvCulFs-4">
          <mxGeometry relative="1" as="geometry" />
        </mxCell>
        <mxCell id="qtClvBC5TZEsLdvCulFs-3" value="&lt;font style=&quot;font-size: 14px;&quot;&gt;M2&lt;/font&gt;" style="text;html=1;strokeColor=none;fillColor=none;align=center;verticalAlign=middle;whiteSpace=wrap;rounded=0;" vertex="1" parent="1">
          <mxGeometry x="440" y="220" width="60" height="30" as="geometry" />
        </mxCell>
        <mxCell id="qtClvBC5TZEsLdvCulFs-4" value="&lt;font style=&quot;font-size: 14px;&quot;&gt;H&lt;/font&gt;" style="text;html=1;strokeColor=none;fillColor=none;align=center;verticalAlign=middle;whiteSpace=wrap;rounded=0;" vertex="1" parent="1">
          <mxGeometry x="370" y="120" width="60" height="30" as="geometry" />
        </mxCell>
        <mxCell id="qtClvBC5TZEsLdvCulFs-9" value="&lt;font style=&quot;font-size: 10px;&quot;&gt;H:High&lt;br&gt;M:Middle&lt;br&gt;L:Low&lt;/font&gt;" style="text;html=1;strokeColor=none;fillColor=none;align=center;verticalAlign=middle;whiteSpace=wrap;rounded=0;" vertex="1" parent="1">
          <mxGeometry x="470" y="280" width="60" height="30" as="geometry" />
        </mxCell>
      </root>
    </mxGraphModel>
  </diagram>
</mxfile>
